<svg width="87" height="87" viewBox="0 0 87 87" fill="none" xmlns="http://www.w3.org/2000/svg">
<rect width="87" height="87" rx="11" fill="#0037D3"/>
<path d="M36.8519 34.6241L39.6401 24.8717C40.6849 21.2212 45.8585 21.2212 46.9033 24.8717L49.6884 34.6241C49.8647 35.241 50.1953 35.8028 50.649 36.2565C51.1027 36.7102 51.6645 37.0409 52.2815 37.2172L62.0339 40.0022C65.6843 41.047 65.6843 46.2206 62.0339 47.2654L52.2815 50.0505C51.6645 50.2268 51.1027 50.5574 50.649 51.0111C50.1953 51.4648 49.8647 52.0266 49.6884 52.6436L46.9033 62.396C45.8585 66.0465 40.6849 66.0465 39.6401 62.396L36.8551 52.6436C36.6788 52.0266 36.3481 51.4648 35.8944 51.0111C35.4407 50.5574 34.8789 50.2268 34.262 50.0505L24.5096 47.2654C20.8591 46.2206 20.8591 41.047 24.5096 40.0022L34.262 37.2172C34.8789 37.0409 35.4407 36.7102 35.8944 36.2565C36.3481 35.8028 36.6788 35.241 36.8551 34.6241" fill="#FFB700"/>
<path d="M37.4617 34.6254L40.2022 24.8744C41.2291 21.2245 46.3143 21.2245 47.3412 24.8744L50.0787 34.6254C50.252 35.2422 50.577 35.804 51.0229 36.2576C51.4689 36.7112 52.0211 37.0418 52.6275 37.2181L62.2132 40.0028C65.8013 41.0474 65.8013 46.2203 62.2132 47.2649L52.6275 50.0495C52.0211 50.2259 51.4689 50.5564 51.0229 51.0101C50.577 51.4637 50.252 52.0254 50.0787 52.6423L47.3412 62.3933C46.3143 66.0432 41.2291 66.0432 40.2022 62.3933L37.4648 52.6423C37.2914 52.0254 36.9665 51.4637 36.5205 51.0101C36.0746 50.5564 35.5224 50.2259 34.916 50.0495L25.3303 47.2649C21.7422 46.2203 21.7422 41.0474 25.3303 40.0028L34.916 37.2181C35.5224 37.0418 36.0746 36.7112 36.5205 36.2576C36.9665 35.804 37.2914 35.2422 37.4648 34.6254M20.3564 19.3523L21.5195 14.6105C21.6741 13.9749 22.565 13.9749 22.7196 14.6105L23.8857 19.3523C23.9126 19.463 23.9685 19.5643 24.0475 19.6452C24.1265 19.7261 24.2256 19.7836 24.3343 19.8117L28.9988 20.9979C29.6236 21.1552 29.6236 22.0583 28.9988 22.2188L24.3343 23.405C24.226 23.4328 24.1271 23.4899 24.0481 23.5702C23.9692 23.6505 23.9131 23.7511 23.8857 23.8612L22.7196 28.6062C22.565 29.2417 21.6741 29.2417 21.5195 28.6062L20.3534 23.8612C20.326 23.7511 20.2699 23.6505 20.191 23.5702C20.112 23.4899 20.0131 23.4328 19.9048 23.405L15.2403 22.2188C14.6155 22.0614 14.6155 21.1552 15.2403 20.9979L19.9048 19.8117C20.0135 19.7836 20.1126 19.7261 20.1916 19.6452C20.2706 19.5643 20.3296 19.463 20.3564 19.3523ZM63.6608 63.4064L64.8238 58.6615C64.9785 58.0259 65.8662 58.0259 66.024 58.6615L67.1901 63.4064C67.2174 63.5166 67.2735 63.6171 67.3525 63.6975C67.4315 63.7778 67.5303 63.8349 67.6386 63.8627L72.3031 65.0489C72.9279 65.2062 72.9279 66.1093 72.3031 66.2697L67.6386 67.456C67.5303 67.4838 67.4315 67.5408 67.3525 67.6212C67.2735 67.7015 67.2174 67.8021 67.1901 67.9122L66.024 72.6571C65.8693 73.2927 64.9816 73.2927 64.8238 72.6571L63.6577 67.9122C63.6304 67.8021 63.5743 67.7015 63.4953 67.6212C63.4163 67.5408 63.3175 67.4838 63.2092 67.456L58.5447 66.2697C57.9199 66.1124 57.9199 65.2062 58.5447 65.0489L63.2092 63.8627C63.3175 63.8349 63.4163 63.7778 63.4953 63.6975C63.5743 63.6171 63.6335 63.5166 63.6608 63.4064Z" stroke="#FFB700" stroke-width="1.5" stroke-miterlimit="10" stroke-linecap="round" stroke-linejoin="round"/>
</svg>
