<?xml version="1.0"?>
<svg id="Layer_1" data-name="Layer 1" xmlns="http://www.w3.org/2000/svg" xmlns:xlink="http://www.w3.org/1999/xlink" viewBox="0 0 141.37 141.33">
  <defs>
    
    <linearGradient id="linear-gradient" x1="23.16" y1="92.97" x2="81.62" y2="92.97" gradientUnits="userSpaceOnUse">
      <stop offset="0" stop-color="#2a2b50"></stop>
      <stop offset=".19" stop-color="#2c2e52"></stop>
      <stop offset=".33" stop-color="#34385c"></stop>
      <stop offset=".47" stop-color="#42496b"></stop>
      <stop offset=".6" stop-color="#556081"></stop>
      <stop offset=".72" stop-color="#6e7f9d"></stop>
      <stop offset=".84" stop-color="#8ca5c0"></stop>
      <stop offset=".96" stop-color="#b0d1e8"></stop>
      <stop offset=".99" stop-color="#bde1f7"></stop>
    </linearGradient>
    <linearGradient id="linear-gradient-2" y1="86.21" y2="86.21" xlink:href="#linear-gradient"></linearGradient>
    <linearGradient id="linear-gradient-3" y1="79.46" y2="79.46" xlink:href="#linear-gradient"></linearGradient>
    <linearGradient id="linear-gradient-4" y1="72.64" y2="72.64" xlink:href="#linear-gradient"></linearGradient>
    <linearGradient id="linear-gradient-5" y1="65.89" y2="65.89" xlink:href="#linear-gradient"></linearGradient>
    <linearGradient id="linear-gradient-6" y1="59.09" y2="59.09" xlink:href="#linear-gradient"></linearGradient>
    <linearGradient id="linear-gradient-7" y1="52.44" y2="52.44" xlink:href="#linear-gradient"></linearGradient>
    <linearGradient id="linear-gradient-8" x1="81.62" y1="93.89" x2="110.54" y2="93.89" gradientUnits="userSpaceOnUse">
      <stop offset="0" stop-color="#2a2b50"></stop>
      <stop offset=".11" stop-color="#474f71"></stop>
      <stop offset=".25" stop-color="#6b7b99"></stop>
      <stop offset=".4" stop-color="#88a0bb"></stop>
      <stop offset=".55" stop-color="#9fbcd5"></stop>
      <stop offset=".7" stop-color="#afd0e8"></stop>
      <stop offset=".85" stop-color="#b9dcf3"></stop>
      <stop offset=".99" stop-color="#bde1f7"></stop>
    </linearGradient>
    <linearGradient id="linear-gradient-9" y1="86.16" x2="110.74" y2="86.16" xlink:href="#linear-gradient-8"></linearGradient>
    <linearGradient id="linear-gradient-10" y1="79.28" x2="110.74" y2="79.28" xlink:href="#linear-gradient-8"></linearGradient>
    <linearGradient id="linear-gradient-11" y1="72.41" x2="110.74" y2="72.41" xlink:href="#linear-gradient-8"></linearGradient>
    <linearGradient id="linear-gradient-12" y1="65.77" x2="110.74" y2="65.77" xlink:href="#linear-gradient-8"></linearGradient>
    <linearGradient id="linear-gradient-13" y1="58.97" x2="110.74" y2="58.97" xlink:href="#linear-gradient-8"></linearGradient>
    <linearGradient id="linear-gradient-14" y1="52.44" x2="110.74" y2="52.44" xlink:href="#linear-gradient-8"></linearGradient>
  </defs>
  <rect fill="#272a4f" x="0" y="0" width="141.33" height="141.33"></rect>
  <g>
    <polygon fill="url(#linear-gradient)" points="23.16 98.32 81.62 92.24 81.62 87.61 23.16 98.32"></polygon>
    <polygon fill="url(#linear-gradient-2)" points="23.16 94.39 81.62 82.69 81.62 78.04 23.16 94.39"></polygon>
    <polygon fill="url(#linear-gradient-3)" points="23.16 90.34 81.62 73.15 81.62 68.58 23.16 90.34"></polygon>
    <polygon fill="url(#linear-gradient-4)" points="23.16 86.41 81.62 63.6 81.62 58.88 23.16 86.41"></polygon>
    <polygon fill="url(#linear-gradient-5)" points="23.16 82.36 81.62 54.05 81.62 49.42 23.16 82.36"></polygon>
    <polygon fill="url(#linear-gradient-6)" points="23.16 78.31 81.62 44.5 81.62 39.87 23.16 78.31"></polygon>
    <polygon fill="url(#linear-gradient-7)" points="23.16 74.56 81.62 34.95 81.62 30.32 23.16 74.56"></polygon>
    <polygon fill="url(#linear-gradient-8)" points="81.62 87.61 81.62 92.24 110.54 100.18 81.62 87.61"></polygon>
    <polygon fill="url(#linear-gradient-9)" points="81.62 78.04 81.62 82.69 110.74 94.27 81.62 78.04"></polygon>
    <polygon fill="url(#linear-gradient-10)" points="81.62 68.58 81.62 73.15 110.74 89.99 81.62 68.58"></polygon>
    <polygon fill="url(#linear-gradient-11)" points="81.62 58.88 81.62 63.6 110.74 85.94 81.62 58.88"></polygon>
    <polygon fill="url(#linear-gradient-12)" points="81.62 49.42 81.62 54.05 110.74 82.12 81.62 49.42"></polygon>
    <polygon fill="url(#linear-gradient-13)" points="81.62 39.87 81.62 44.5 110.74 78.08 81.62 39.87"></polygon>
    <polygon fill="url(#linear-gradient-14)" points="81.62 30.32 81.62 34.95 110.74 74.56 81.62 30.32"></polygon>
    <g>
      <path fill="#fff" d="M58.63,119.75v-.2h.29c.33,0,.56-.1.7-.29.08-.12.13-.38.13-.79v-4.67c0-.45-.05-.73-.16-.85-.15-.16-.37-.23-.66-.23h-.29v-.2h3.15c1.16,0,2.04.12,2.64.37.6.25,1.09.65,1.45,1.23.37.57.55,1.23.55,1.98,0,1.01-.33,1.85-.98,2.52-.73.75-1.85,1.13-3.36,1.13h-3.46ZM60.84,119.23c.48.1.89.15,1.22.15.88,0,1.61-.29,2.2-.87s.87-1.36.87-2.36-.29-1.79-.87-2.36c-.58-.58-1.33-.86-2.24-.86-.34,0-.73.05-1.17.15v6.15Z"></path>
      <path fill="#fff" d="M68.12,116.7c0,.72.18,1.29.56,1.71.38.41.83.62,1.34.62.34,0,.64-.09.89-.26.25-.18.46-.48.64-.9l.18.11c-.08.49-.31.93-.7,1.33-.38.4-.87.6-1.44.6-.63,0-1.17-.23-1.61-.69-.45-.46-.67-1.07-.67-1.84,0-.84.23-1.49.69-1.95.46-.47,1.03-.7,1.73-.7.59,0,1.07.18,1.44.54.38.36.56.84.56,1.45h-3.61ZM68.12,116.39h2.42c-.02-.31-.06-.53-.12-.66-.09-.2-.24-.36-.42-.47-.19-.11-.38-.17-.59-.17-.32,0-.6.11-.85.34-.25.23-.39.55-.44.96Z"></path>
      <path fill="#fff" d="M76.86,117.89c-.14.64-.42,1.14-.83,1.49-.41.35-.87.52-1.36.52-.59,0-1.11-.23-1.55-.7-.44-.47-.66-1.09-.66-1.89s.24-1.39.73-1.87c.49-.48,1.08-.72,1.76-.72.51,0,.94.13,1.27.38.33.25.5.52.5.79,0,.14-.05.24-.14.33-.09.08-.22.13-.39.13-.22,0-.39-.07-.51-.2-.06-.07-.11-.22-.13-.43-.02-.21-.1-.37-.23-.48-.13-.11-.32-.16-.55-.16-.38,0-.69.13-.92.39-.31.35-.46.81-.46,1.38s.15,1.1.46,1.54c.31.45.72.67,1.24.67.37,0,.71-.12,1-.36.21-.16.41-.46.61-.89l.17.07Z"></path>
      <path fill="#fff" d="M80.17,114.72c.79,0,1.43.28,1.91.84.41.48.61,1.03.61,1.65,0,.44-.11.88-.34,1.33-.22.45-.53.79-.93,1.01-.39.23-.83.34-1.31.34-.79,0-1.41-.29-1.88-.88-.39-.49-.59-1.05-.59-1.66,0-.45.12-.89.36-1.34.24-.44.55-.77.94-.98.39-.21.8-.32,1.23-.32ZM79.99,115.07c-.2,0-.4.06-.61.17-.2.11-.37.31-.49.59-.13.28-.19.64-.19,1.08,0,.71.15,1.32.45,1.84.3.52.7.77,1.2.77.37,0,.67-.14.91-.43.24-.28.36-.77.36-1.47,0-.87-.2-1.55-.6-2.05-.27-.34-.61-.51-1.03-.51Z"></path>
      <path fill="#fff" d="M84.98,114.72v1.1c.44-.73.89-1.1,1.35-1.1.21,0,.38.06.52.18.14.12.21.26.21.41,0,.14-.05.26-.15.35-.1.1-.22.14-.35.14s-.28-.06-.45-.18c-.17-.12-.29-.18-.37-.18-.07,0-.14.04-.22.11-.17.15-.35.39-.53.72v2.34c0,.27.04.47.11.61.05.1.14.18.26.24.13.06.31.1.54.1v.19h-2.68v-.19c.27,0,.46-.04.59-.12.09-.06.16-.15.2-.27.02-.06.03-.23.03-.52v-1.89c0-.57-.01-.91-.04-1.02-.02-.11-.07-.19-.14-.24-.07-.05-.15-.07-.25-.07-.12,0-.25.03-.4.08l-.06-.19,1.58-.6h.24Z"></path>
      <path fill="#fff" d="M90.3,119.04c-.54.39-.87.61-1.01.67-.21.09-.42.13-.66.13-.36,0-.66-.12-.89-.35-.23-.23-.35-.53-.35-.91,0-.24.06-.44.17-.62.16-.24.43-.47.81-.68.39-.21,1.03-.47,1.93-.78v-.19c0-.49-.08-.82-.25-1-.17-.18-.41-.27-.72-.27-.24,0-.43.06-.57.18-.14.12-.22.26-.22.42v.31c.01.16-.03.29-.12.38s-.21.13-.35.13-.26-.05-.35-.14c-.09-.09-.13-.22-.13-.38,0-.31.17-.59.5-.84.33-.26.8-.38,1.41-.38.46,0,.84.07,1.14.22.22.11.39.28.5.52.07.15.1.47.1.94v1.66c0,.47,0,.75.03.86.02.11.05.18.09.21s.09.05.15.05c.06,0,.11-.01.16-.04.08-.05.23-.18.46-.39v.3c-.43.53-.83.8-1.22.8-.19,0-.34-.06-.45-.18-.11-.12-.17-.33-.17-.62ZM90.3,118.7v-1.86c-.57.21-.95.36-1.11.45-.3.16-.52.32-.64.49-.13.17-.19.36-.19.56,0,.26.08.47.25.64.16.17.35.25.56.25.29,0,.67-.18,1.14-.53Z"></path>
      <path fill="#fff" d="M94.05,113.26v1.61h1.22v.37h-1.22v3.17c0,.32.05.53.15.64.1.11.22.17.37.17.13,0,.25-.04.37-.11.12-.07.21-.18.27-.32h.22c-.13.35-.32.61-.56.79-.24.18-.49.26-.75.26-.17,0-.35-.05-.51-.14-.17-.09-.29-.22-.37-.39-.08-.17-.12-.43-.12-.78v-3.28h-.83v-.18c.21-.08.42-.21.64-.4.22-.19.41-.41.58-.66.09-.14.21-.38.37-.74h.18Z"></path>
      <path fill="#fff" d="M97.58,114.72v3.92c0,.31.02.51.07.61.05.1.12.18.21.23.09.05.26.07.51.07v.19h-2.54v-.19c.25,0,.43-.02.51-.07.09-.05.16-.12.21-.23.05-.11.08-.31.08-.61v-1.88c0-.53-.02-.87-.05-1.03-.03-.11-.07-.19-.13-.24-.06-.04-.14-.07-.23-.07-.11,0-.24.03-.39.08l-.08-.19,1.57-.6h.25ZM97.1,112.17c.16,0,.3.05.41.16.11.11.17.23.17.38s-.06.28-.17.38c-.11.11-.25.16-.41.16s-.3-.05-.41-.16c-.11-.11-.17-.23-.17-.38s.06-.28.17-.38c.11-.1.25-.16.41-.16Z"></path>
      <path fill="#fff" d="M101.58,114.72c.79,0,1.43.28,1.91.84.41.48.61,1.03.61,1.65,0,.44-.11.88-.34,1.33-.22.45-.53.79-.93,1.01-.39.23-.83.34-1.32.34-.79,0-1.41-.29-1.88-.88-.39-.49-.59-1.05-.59-1.66,0-.45.12-.89.36-1.34.24-.44.55-.77.94-.98.39-.21.8-.32,1.23-.32ZM101.4,115.07c-.2,0-.4.06-.61.17-.2.11-.37.31-.49.59-.13.28-.19.64-.19,1.08,0,.71.15,1.32.45,1.84.3.52.7.77,1.2.77.37,0,.67-.14.91-.43.24-.28.36-.77.36-1.47,0-.87-.2-1.55-.6-2.05-.27-.34-.61-.51-1.03-.51Z"></path>
      <path fill="#fff" d="M106.39,115.76c.61-.69,1.2-1.03,1.75-1.03.29,0,.53.07.74.2.21.13.37.35.49.66.08.21.13.54.13.98v2.08c0,.31.03.52.08.63.04.09.11.16.2.21.09.05.27.07.52.07v.19h-2.58v-.19h.11c.24,0,.41-.03.51-.1.1-.07.16-.17.2-.31.01-.05.02-.22.02-.5v-2c0-.44-.06-.77-.19-.97-.12-.2-.33-.3-.62-.3-.45,0-.9.23-1.35.69v2.58c0,.33.02.53.06.61.05.1.13.18.22.23.09.05.28.07.57.07v.19h-2.58v-.19h.11c.27,0,.45-.06.54-.19.09-.13.14-.37.14-.72v-1.81c0-.59-.01-.94-.04-1.07-.03-.13-.07-.22-.13-.26-.06-.05-.14-.07-.24-.07-.11,0-.23.03-.38.08l-.09-.19,1.57-.6h.25v1.03Z"></path>
    </g>
    <polygon fill="#fff" points="23.81 105.48 39.27 105.48 39.27 108.79 29.52 108.79 29.52 111.26 37.16 111.26 37.16 114.6 29.51 114.6 29.51 120.69 23.81 120.69 23.81 105.48"></polygon>
    <path fill="#797fa8" d="M40.13,116.43c0,.22.1.47.29.75l.22.29v-1.54c-.15.02-.27.06-.35.13-.11.09-.16.22-.16.37Z"></path>
    <path fill="#797fa8" d="M40.27,118.57c-.34.39-.5.63-.5.89,0,.43.29.65.86.66v-1.87l-.02-.03-.35.34Z"></path>
    <path fill="#fff" d="M40.66,117.49l.41-.37c.28-.27.42-.52.42-.76,0-.12-.06-.22-.18-.31-.13-.09-.3-.14-.49-.14-.07,0-.13,0-.19.01v1.54l.02.03Z"></path>
    <path fill="#fff" d="M40.69,120.13c.36,0,.68-.14.96-.41l-1-1.45v1.87s.03,0,.05,0Z"></path>
    <path fill="#fff" d="M52.87,105.49h-12.23v9.88c.06,0,.12-.01.19-.01.4,0,.75.11,1.04.32.24.21.36.44.36.69,0,.34-.18.66-.53.96l-.68.62.96,1.22c.12-.32.18-.72.18-1.2l.67.25c0,.64-.13,1.15-.39,1.55l.04.05c.16.18.39.27.69.27v.54c-.49,0-.87-.14-1.12-.42-.32.27-.7.42-1.14.46h5.07v-5.63h6.97s5.2-.23,5.22-5.02c.02-4.79-5.3-4.54-5.3-4.54ZM50.71,111.92h-4.73v-3.58h4.67s1.85.06,1.85,1.79-1.79,1.79-1.79,1.79Z"></path>
    <path fill="#fff" d="M40.64,120.12c-.57-.01-.86-.23-.86-.66,0-.26.15-.5.5-.89l.35-.34.02.03v-.79l-.22-.29c-.19-.28-.29-.53-.29-.75,0-.15.05-.28.16-.37.09-.07.21-.11.35-.13v-.56c-.36.03-.66.14-.9.35-.23.21-.35.44-.35.71,0,.31.14.65.42,1l.39.48-.35.32c-.51.45-.77.86-.77,1.23,0,.82.54,1.23,1.61,1.23.08,0,.15,0,.22-.01h-.27v-.55Z"></path>
    <path fill="#797fa8" d="M43.18,120.64v-.54c-.3,0-.53-.09-.69-.27l-.04-.05c.26-.4.39-.91.39-1.55l-.67-.25c0,.48-.06.88-.18,1.2l-.96-1.22.68-.62c.35-.3.53-.62.53-.96,0-.25-.12-.48-.36-.69-.29-.22-.64-.32-1.04-.32-.07,0-.13,0-.19.01v.56c.06,0,.12-.01.19-.01.19,0,.36.05.49.14.12.08.18.19.18.31,0,.23-.14.49-.42.76l-.41.37-.02-.03v.79l1,1.45c-.28.28-.6.41-.96.41-.02,0-.03,0-.05,0v.55h.27c.44-.04.82-.19,1.14-.46.26.28.63.42,1.12.42Z"></path>
  </g>
</svg>